<?xml version="1.0" encoding="UTF-8"?>
<svg version="1.1" xmlns="http://www.w3.org/2000/svg" width="150" height="81">
<path d="M0 0 C1.92994484 -0.00524413 3.85988713 -0.01152348 5.78982544 -0.01878357 C9.8227347 -0.02915489 13.85529041 -0.02467425 17.88818359 -0.01000977 C23.02804794 0.00716037 28.16679243 -0.0163128 33.30653191 -0.05149937 C37.28914644 -0.073579 41.27149747 -0.07200623 45.25415421 -0.06373405 C47.1477697 -0.06292007 49.04140562 -0.06967646 50.93496323 -0.08450508 C64.91861875 -0.17723267 76.08926694 1.29701367 87.23046875 10.625 C90.5641935 13.91895865 92.95181939 17.46811033 95.1953125 21.56640625 C95.81599609 22.62021484 95.81599609 22.62021484 96.44921875 23.6953125 C100.95052966 32.71361834 100.68708434 44.52010975 98.3125 54.14453125 C94.35836319 64.35720248 88.00440873 72.52700081 78.1953125 77.56640625 C77.61621628 77.89327423 77.03712006 78.22014221 76.44047546 78.55691528 C67.54387321 82.89370554 58.05050389 82.16484243 48.390625 82.1328125 C46.46068016 82.13805663 44.53073787 82.14433598 42.60079956 82.15159607 C38.5678903 82.16196739 34.53533459 82.15748675 30.50244141 82.14282227 C25.36257706 82.12565213 20.22383257 82.1491253 15.08409309 82.18431187 C11.10147856 82.2063915 7.11912753 82.20481873 3.13647079 82.19654655 C1.2428553 82.19573257 -0.65078062 82.20248896 -2.54433823 82.21731758 C-16.52799375 82.31004517 -27.69864194 80.83579883 -38.83984375 71.5078125 C-42.1735685 68.21385385 -44.56119439 64.66470217 -46.8046875 60.56640625 C-47.21847656 59.86386719 -47.63226563 59.16132812 -48.05859375 58.4375 C-52.55990466 49.41919416 -52.29645934 37.61270275 -49.921875 27.98828125 C-45.96773819 17.77561002 -39.61378373 9.60581169 -29.8046875 4.56640625 C-29.22559128 4.23953827 -28.64649506 3.91267029 -28.04985046 3.57589722 C-19.15324821 -0.76089304 -9.65987889 -0.03202993 0 0 Z " fill="#4BFEFD" transform="translate(50.8046875,-0.56640625)"/>
<path d="M0 0 C1.96484375 1.2890625 1.96484375 1.2890625 4.83984375 3.7265625 C4.83984375 4.7165625 4.83984375 5.7065625 4.83984375 6.7265625 C5.45472656 6.97664063 6.06960937 7.22671875 6.703125 7.484375 C9.20843808 8.94084586 9.82587125 10.00245872 11.02734375 12.6015625 C11.35089844 13.27960937 11.67445313 13.95765625 12.0078125 14.65625 C15.41440132 23.13273862 15.0712576 33.6293461 11.90234375 42.1015625 C7.63965731 51.03634594 0.92969438 57.02899614 -8.16015625 60.7265625 C-16.46323958 63.4449439 -28.09246654 62.89125937 -35.921875 59.1015625 C-45.09107915 53.46882277 -51.16250138 45.79209402 -53.78515625 35.203125 C-55.4716884 24.06498559 -53.27407406 15.99896183 -47.16015625 6.7265625 C-35.06953777 -7.68402706 -15.74537853 -9.28208571 0 0 Z " fill="#FBFDFD" transform="translate(126.16015625,12.2734375)"/>
</svg>
